<svg xmlns="http://www.w3.org/2000/svg" viewBox="-28 -28 1642 490" role="img" aria-label="System Context"><title>System Context</title><rect x="-28" y="-28" width="1642" height="490" fill="#fafafb"/><g><g aria-label="author to workspec-studio: authors .workspec/ artifacts and code"><path d="M 312 217 L 477 217 Q 477.5 217 477.5 217 L 477.5 217 Q 477.5 217 478 217 L 643 217" fill="none" stroke="#4a90d9" stroke-width="1.5" stroke-linecap="round" stroke-linejoin="round"/><path d="M -8 -4 L 0 0 L -8 4 Z" fill="#4a90d9" transform="translate(643 217) rotate(0)"/><text x="477.5" y="213" font-size="11" text-anchor="middle">authors .workspec/ artifact…</text></g><g aria-label="workspec-studio to github-pages: deploys the Studio site to"><path d="M 925 162 L 925 114.65768621236133 Q 925 102.65768621236133 937 102.65768621236133 L 1274 102.65768621236133" fill="none" stroke="#4caf50" stroke-width="1.5" stroke-linecap="round" stroke-linejoin="round"/><path d="M -8 -4 L 0 0 L -8 4 Z" fill="#4caf50" transform="translate(1274 102.65768621236133) rotate(0)"/><text x="1069.8288431061806" y="98.65768621236133" font-size="11" text-anchor="middle">deploys the Studio site to</text></g><g aria-label="workspec-studio to npm-registry: publishes @workspec/* packages to"><path d="M 943 217 L 1108 217 Q 1108.5 217 1108.5 217 L 1108.5 217 Q 1108.5 217 1109 217 L 1274 217" fill="none" stroke="#4caf50" stroke-width="1.5" stroke-linecap="round" stroke-linejoin="round"/><path d="M -8 -4 L 0 0 L -8 4 Z" fill="#4caf50" transform="translate(1274 217) rotate(0)"/><text x="1108.5" y="213" font-size="11" text-anchor="middle">publishes @workspec/* packa…</text></g><g aria-label="workspec-studio to workspec-enterprise: packages consumed directly by"><path d="M 925 272 L 925 319.34231378763866 Q 925 331.34231378763866 937 331.34231378763866 L 1274 331.34231378763866" fill="none" stroke="#4caf50" stroke-width="1.5" stroke-linecap="round" stroke-linejoin="round"/><path d="M -8 -4 L 0 0 L -8 4 Z" fill="#4caf50" transform="translate(1274 331.34231378763866) rotate(0)"/><text x="1069.8288431061806" y="327.34231378763866" font-size="11" text-anchor="middle">packages consumed directly…</text></g></g><g><g aria-label="actor: WorkSpec Author"><rect x="12" y="162" width="300" height="110" rx="10" ry="10" fill="#eff5fc" stroke="rgba(74, 144, 217, 0.28)" stroke-width="1"/><line x1="14" y1="162" x2="14" y2="272" stroke="#4a90d9" stroke-width="4"/><text x="26" y="188" font-size="14" font-weight="600" fill="#0a0a0c">WorkSpec Author</text><text x="26" y="212" font-size="11" fill="rgba(10, 10, 12, 0.6)">A developer who writes *.decision…</text><text x="302" y="260" font-size="10" text-anchor="end" fill="#376494">actor</text></g><g aria-label="external-system: GitHub Pages"><rect x="1274" y="12" width="300" height="110" rx="10" ry="10" fill="#f0f2f4" stroke="rgba(100, 116, 139, 0.28)" stroke-width="1"/><line x1="1276" y1="12" x2="1276" y2="122" stroke="#64748b" stroke-width="4" stroke-dasharray="6 3"/><text x="1288" y="38" font-size="14" font-weight="600" fill="#0a0a0c">GitHub Pages</text><text x="1288" y="62" font-size="11" fill="rgba(10, 10, 12, 0.6)">Static hosting serving the built…</text><text x="1564" y="110" font-size="10" text-anchor="end" fill="#465161">external-system</text></g><g aria-label="external-system: npm registry"><rect x="1274" y="162" width="300" height="110" rx="10" ry="10" fill="#f0f2f4" stroke="rgba(100, 116, 139, 0.28)" stroke-width="1"/><line x1="1276" y1="162" x2="1276" y2="272" stroke="#64748b" stroke-width="4" stroke-dasharray="6 3"/><text x="1288" y="188" font-size="14" font-weight="600" fill="#0a0a0c">npm registry</text><text x="1288" y="212" font-size="11" fill="rgba(10, 10, 12, 0.6)">The public npm registry every @wo…</text><text x="1564" y="260" font-size="10" text-anchor="end" fill="#465161">external-system</text></g><g aria-label="external-system: WorkSpec Enterprise"><rect x="1274" y="312" width="300" height="110" rx="10" ry="10" fill="#f0f2f4" stroke="rgba(100, 116, 139, 0.28)" stroke-width="1"/><line x1="1276" y1="312" x2="1276" y2="422" stroke="#64748b" stroke-width="4" stroke-dasharray="6 3"/><text x="1288" y="338" font-size="14" font-weight="600" fill="#0a0a0c">WorkSpec Enterprise</text><text x="1288" y="362" font-size="11" fill="rgba(10, 10, 12, 0.6)">The commercial WorkSpec product.…</text><text x="1564" y="410" font-size="10" text-anchor="end" fill="#465161">external-system</text></g><g aria-label="system: WorkSpec Studio"><rect x="643" y="162" width="300" height="110" rx="10" ry="10" fill="#eaf1fa" stroke="rgba(17, 104, 189, 0.28)" stroke-width="1"/><line x1="645" y1="162" x2="645" y2="272" stroke="#1168bd" stroke-width="4"/><text x="657" y="188" font-size="14" font-weight="600" fill="#0a0a0c">WorkSpec Studio</text><text x="657" y="212" font-size="11" fill="rgba(10, 10, 12, 0.6)">One pnpm monorepo holding every f…</text><text x="933" y="260" font-size="10" text-anchor="end" fill="#164a82">system</text></g></g></svg>